<?xml version="1.0" encoding="UTF-8" standalone="no"?>
<!-- Created with Inkscape (http://www.inkscape.org/) -->

<svg
   xmlns:dc="http://purl.org/dc/elements/1.1/"
   xmlns:cc="http://creativecommons.org/ns#"
   xmlns:rdf="http://www.w3.org/1999/02/22-rdf-syntax-ns#"
   xmlns:svg="http://www.w3.org/2000/svg"
   xmlns="http://www.w3.org/2000/svg"
   xmlns:xlink="http://www.w3.org/1999/xlink"
   xmlns:sodipodi="http://sodipodi.sourceforge.net/DTD/sodipodi-0.dtd"
   xmlns:inkscape="http://www.inkscape.org/namespaces/inkscape"
   width="1024"
   height="600"
   viewBox="0 0 270.93333 158.75"
   version="1.1"
   id="svg1524"
   inkscape:export-filename="D:\main_menu.png"
   inkscape:export-xdpi="96"
   inkscape:export-ydpi="96"
   inkscape:version="0.92.2 (5c3e80d, 2017-08-06)"
   sodipodi:docname="main_menu.svg">
  <defs
     id="defs1518">
    <linearGradient
       gradientUnits="userSpaceOnUse"
       x1="-819.20001"
       x2="819.20001"
       spreadMethod="pad"
       gradientTransform="matrix(0,0.11956787,-0.1217041,0,296,792.4)"
       id="gradient0">
      <stop
         offset="0"
         stop-color="#FFFFFF"
         id="stop2" />
      <stop
         offset="1"
         stop-color="#CFEFFC"
         id="stop4" />
    </linearGradient>
    <linearGradient
       gradientUnits="userSpaceOnUse"
       x1="-819.20001"
       x2="819.20001"
       spreadMethod="pad"
       gradientTransform="matrix(0,0.03707305,-0.03220087,0,203.18676,222.70994)"
       id="gradient0-1">
      <stop
         offset="0"
         stop-color="#FFFFFF"
         id="stop2-4" />
      <stop
         offset="1"
         stop-color="#CFEFFC"
         id="stop4-7" />
    </linearGradient>
    <linearGradient
       inkscape:collect="always"
       xlink:href="#gradient0"
       id="linearGradient2218"
       gradientUnits="userSpaceOnUse"
       gradientTransform="matrix(0,0.11956787,-0.1217041,0,296,792.4)"
       x1="-819.20001"
       x2="819.20001"
       spreadMethod="pad" />
    <linearGradient
       inkscape:collect="always"
       xlink:href="#gradient0"
       id="linearGradient2220"
       gradientUnits="userSpaceOnUse"
       gradientTransform="matrix(0,0.11956787,-0.1217041,0,296,792.4)"
       x1="-819.20001"
       x2="819.20001"
       spreadMethod="pad" />
  </defs>
  <sodipodi:namedview
     id="base"
     pagecolor="#ffffff"
     bordercolor="#666666"
     borderopacity="1.0"
     inkscape:pageopacity="0.0"
     inkscape:pageshadow="2"
     inkscape:zoom="0.7"
     inkscape:cx="663.6594"
     inkscape:cy="174.51285"
     inkscape:document-units="mm"
     inkscape:current-layer="layer1"
     showgrid="false"
     units="px"
     inkscape:snap-page="true"
     inkscape:snap-bbox="true"
     inkscape:window-width="1681"
     inkscape:window-height="1194"
     inkscape:window-x="467"
     inkscape:window-y="85"
     inkscape:window-maximized="0" />
  <metadata
     id="metadata1521">
    <rdf:RDF>
      <cc:Work
         rdf:about="">
        <dc:format>image/svg+xml</dc:format>
        <dc:type
           rdf:resource="http://purl.org/dc/dcmitype/StillImage" />
        <dc:title></dc:title>
      </cc:Work>
    </rdf:RDF>
  </metadata>
  <g
     inkscape:label="Layer 1"
     inkscape:groupmode="layer"
     id="layer1"
     transform="translate(0,-138.24998)">
    <g
       id="g1498"
       transform="matrix(0.26458333,0,0,0.31005859,-10.583333,-22.980489)"
       inkscape:transform-center-x="69.805586">
      <path
         d="m 40,520 h 512 v 512 H 40 V 520"
         id="path184"
         inkscape:connector-curvature="0"
         style="fill:#cfeffc;stroke:none" />
      <path
         d="m 40,736.2 q 3.45,-1.75 7.65,-1.75 4.15,0 7.6,1.7 8.15,-3.65 17.9,-3.65 h 0.8 q 0.9,-4.3 4.45,-7.6 4.75,-4.45 11.55,-4.45 4.85,0 8.7,2.25 l 4.1,-4.4 q 5.3,-4.95 11.6,-7.75 0.35,-1.9 1.2,-3.65 -1.2,-2.4 -1.4,-5.1 l -0.05,-1.3 v -0.65 q 0.25,-5.9 4.75,-10.1 4.8,-4.45 11.55,-4.45 l 3.55,0.35 q 3.05,-6.3 8.7,-11.55 12.25,-11.4 29.6,-11.4 10.05,0 18.4,3.85 3.75,-2.25 8.6,-2.25 6.75,0 11.55,4.45 4.3,4 4.75,9.5 l 4.3,-0.5 q 6.8,0 11.6,4.45 2.35,2.15 3.5,4.85 17.3,0 29.5,11.4 3.9,3.65 6.55,7.8 l 0.3,-0.35 q 4.8,-4.45 11.6,-4.45 6.8,0 11.55,4.45 3.2,3 4.25,6.85 l 2.9,-0.1 8.8,0.85 q 0.95,-4.3 4.45,-7.55 4.8,-4.45 11.55,-4.45 5.7,0 9.95,3.1 8.3,-7 18.9,-9.05 1.05,-3.9 4.35,-6.95 4.75,-4.45 11.55,-4.45 6.75,0 11.55,4.45 3,2.8 4.15,6.35 l 2.85,-0.25 q 6.75,0 11.55,4.45 4.6,4.3 4.8,10.25 v 0.55 0.35 l -0.05,1.05 -0.05,0.25 H 406 q 3.25,-1.5 7.1,-1.5 6.8,0 11.55,4.45 l 0.5,0.5 6.5,-0.45 q 16.55,0 28.4,10.35 l 1.35,-1.4 q 4.8,-4.45 11.55,-4.45 6.8,0 11.55,4.45 2.7,2.45 3.85,5.5 4.75,-1.9 10.1,-2.55 0.9,-6.2 5.55,-10.8 3.35,-3.35 7.45,-4.75 3.05,-1.1 6.55,-1.1 8.15,0 14,5.85 1.4,1.4 2.45,2.95 6.75,0.7 11.75,5.7 5.6,5.6 5.8,13.45 V 862.1 H 40 V 736.2"
         id="path186"
         inkscape:connector-curvature="0"
         style="fill:#def5ff;stroke:none" />
      <path
         d="M 552,766.2 V 892.1 H 40 V 767.8 q 0.2,-7.85 5.8,-13.45 5,-5 11.75,-5.7 1.05,-1.55 2.45,-2.95 5.85,-5.85 14,-5.85 3.5,0 6.55,1.1 4.1,1.4 7.45,4.75 4.65,4.6 5.55,10.8 5.35,0.65 10.1,2.55 1.15,-3.05 3.85,-5.5 4.75,-4.45 11.55,-4.45 6.75,0 11.55,4.45 l 1.35,1.4 q 11.85,-10.35 28.4,-10.35 l 6.5,0.45 0.5,-0.5 q 4.75,-4.45 11.55,-4.45 3.85,0 7.1,1.5 h 0.05 l -0.05,-0.25 -0.05,-1.05 v -0.35 -0.55 q 0.2,-5.95 4.8,-10.25 4.8,-4.45 11.55,-4.45 l 2.85,0.25 q 1.15,-3.55 4.15,-6.35 4.8,-4.45 11.55,-4.45 6.8,0 11.55,4.45 3.3,3.05 4.35,6.95 10.6,2.05 18.9,9.05 4.25,-3.1 9.95,-3.1 6.75,0 11.55,4.45 3.5,3.25 4.45,7.55 l 8.8,-0.85 2.9,0.1 q 1.05,-3.85 4.25,-6.85 4.75,-4.45 11.55,-4.45 6.8,0 11.6,4.45 l 0.3,0.35 q 2.65,-4.15 6.55,-7.8 12.2,-11.4 29.5,-11.4 1.15,-2.7 3.5,-4.85 4.8,-4.45 11.6,-4.45 l 4.3,0.5 q 0.45,-5.5 4.75,-9.5 4.8,-4.45 11.55,-4.45 4.85,0 8.6,2.25 8.35,-3.85 18.4,-3.85 17.35,0 29.6,11.4 5.65,5.25 8.7,11.55 l 3.55,-0.35 q 6.75,0 11.55,4.45 4.5,4.2 4.75,10.1 v 0.65 l -0.05,1.3 q -0.2,2.7 -1.4,5.1 0.85,1.75 1.2,3.65 6.3,2.8 11.6,7.75 2.25,2.1 4.1,4.4 3.85,-2.25 8.7,-2.25 6.8,0 11.55,4.45 3.55,3.3 4.45,7.6 h 0.8 q 9.75,0 17.9,3.65 3.45,-1.7 7.6,-1.7 4.2,0 7.65,1.75"
         id="path188"
         style="fill:url(#linearGradient2218);stroke:none"
         inkscape:connector-curvature="0" />
      <path
         d="M 551.95,812.25 V 908 H 40 v -95.75 q 17.45,3.05 34.3,6.85 29.45,6.6 60.25,1 28.55,-5.2 57.7,-9.45 29.95,-4.4 60.65,-1.45 30.65,3 58.55,9.5 28.25,6.6 59.75,6.7 31.5,0.1 60.95,-5.15 28.55,-5.15 58.2,-8.6 31,-3.55 61.6,0.6"
         id="path190"
         inkscape:connector-curvature="0"
         style="fill:#eaf8fd;stroke:none" />
      <path
         d="m 552,842.45 q -17.45,2.6 -34.3,5.85 -29.45,5.65 -60.25,0.9 -28.55,-4.45 -57.7,-8.1 -29.95,-3.75 -60.65,-1.2 -30.65,2.5 -58.55,8.1 -28.25,5.6 -59.75,5.7 -31.5,0.1 -60.95,-4.4 -28.55,-4.4 -58.2,-7.3 -31,-3.05 -61.6,0.45 v -6.2 q 30.6,-4.15 61.6,-0.6 29.65,3.45 58.2,8.6 29.45,5.25 60.95,5.15 31.5,-0.1 59.75,-6.7 27.9,-6.5 58.55,-9.5 30.7,-2.95 60.65,1.45 29.15,4.25 57.7,9.45 30.8,5.6 60.25,-1 16.85,-3.8 34.3,-6.85 v 6.2"
         id="path192"
         inkscape:connector-curvature="0"
         style="fill:#c9efff;stroke:none" />
      <path
         d="M 552,842.45 V 1032 H 40.05 V 842.45 q 30.6,-3.5 61.6,-0.45 29.65,2.9 58.2,7.3 29.45,4.5 60.95,4.4 31.5,-0.1 59.75,-5.7 27.9,-5.6 58.55,-8.1 30.7,-2.55 60.65,1.2 29.15,3.65 57.7,8.1 30.8,4.75 60.25,-0.9 16.85,-3.25 34.3,-5.85"
         id="path194"
         inkscape:connector-curvature="0"
         style="fill:#b7e7fa;stroke:none" />
    </g>
    <path
       style="fill:#cfeffc;stroke:none;stroke-width:0.28641984"
       inkscape:connector-curvature="0"
       id="path184-8"
       d="m 135.45343,138.24998 h 135.46666 v 158.75 H 135.45343 v -158.75" />
    <path
       style="fill:#def5ff;stroke:none;stroke-width:0.28641984"
       inkscape:connector-curvature="0"
       id="path186-5"
       d="m 135.45343,205.28464 q 0.91282,-0.5426 2.02407,-0.5426 1.09802,0 2.01083,0.5271 2.15635,-1.13171 4.73604,-1.13171 h 0.21167 q 0.23812,-1.33325 1.17739,-2.35645 1.25677,-1.37976 3.05594,-1.37976 1.28323,0 2.30187,0.69763 l 1.0848,-1.36425 q 1.40229,-1.53479 3.06916,-2.40296 0.0926,-0.58911 0.3175,-1.13171 -0.3175,-0.74414 -0.37041,-1.5813 l -0.0132,-0.40308 v -0.20153 q 0.0661,-1.82935 1.25677,-3.1316 1.27,-1.37976 3.05593,-1.37976 l 0.93928,0.10852 q 0.80697,-1.95337 2.30187,-3.58117 3.24115,-3.53467 7.83167,-3.53467 2.65906,0 4.86833,1.19372 0.99219,-0.69763 2.27542,-0.69763 1.78593,0 3.05593,1.37976 1.13771,1.24024 1.25677,2.94556 l 1.13771,-0.15503 q 1.79917,0 3.06917,1.37976 0.62177,0.66663 0.92604,1.50379 4.57729,0 7.80521,3.53466 1.03187,1.13172 1.73302,2.41846 l 0.0794,-0.10852 q 1.27,-1.37976 3.06917,-1.37976 1.79917,0 3.05594,1.37976 0.84667,0.93018 1.12448,2.1239 l 0.76729,-0.031 2.32833,0.26354 q 0.25136,-1.33325 1.1774,-2.34094 1.27,-1.37976 3.05594,-1.37976 1.50812,0 2.6326,0.96118 2.19604,-2.17041 5.00062,-2.80603 0.27782,-1.20923 1.15094,-2.1549 1.25677,-1.37976 3.05594,-1.37976 1.78594,0 3.05594,1.37976 0.79375,0.86816 1.09802,1.96887 l 0.75406,-0.0775 q 1.78594,0 3.05594,1.37976 1.21708,1.33326 1.27,3.1781 v 0.17054 0.10852 l -0.0132,0.32556 -0.0132,0.0775 h 0.0132 q 0.85989,-0.46508 1.87854,-0.46508 1.79917,0 3.05594,1.37976 l 0.13229,0.15503 1.71979,-0.13953 q 4.37885,0 7.51417,3.20911 l 0.35718,-0.43409 q 1.27,-1.37976 3.05594,-1.37976 1.79917,0 3.05594,1.37976 0.71437,0.75965 1.01864,1.70533 1.25678,-0.58912 2.6723,-0.79065 0.23812,-1.92237 1.46843,-3.34864 0.88636,-1.03869 1.97115,-1.47277 0.80698,-0.34107 1.73302,-0.34107 2.15635,0 3.70417,1.81384 0.37041,0.43409 0.64823,0.91468 1.78593,0.21704 3.10885,1.76733 1.48167,1.73633 1.53458,4.17029 v 38.54028 H 135.45343 v -39.03638" />
    <path
       inkscape:connector-curvature="0"
       style="fill:url(#gradient0-1);stroke:none;stroke-width:0.28641984"
       id="path188-4"
       d="m 270.92009,214.5864 v 39.03638 H 135.45343 V 215.0825 q 0.0529,-2.43396 1.53459,-4.17029 1.32291,-1.55029 3.10885,-1.76734 0.27781,-0.48059 0.64823,-0.91467 1.54781,-1.81384 3.70417,-1.81384 0.92604,0 1.73302,0.34106 1.08479,0.43409 1.97114,1.47278 1.23031,1.42627 1.46844,3.34863 1.41552,0.20154 2.67229,0.79065 0.30427,-0.94567 1.01865,-1.70532 1.25677,-1.37976 3.05593,-1.37976 1.78594,0 3.05594,1.37976 l 0.35719,0.43408 q 3.13531,-3.2091 7.51417,-3.2091 l 1.71979,0.13952 0.13229,-0.15503 q 1.25677,-1.37976 3.05594,-1.37976 1.01864,0 1.87854,0.46509 h 0.0132 l -0.0132,-0.0775 -0.0132,-0.32556 v -0.10853 -0.17053 q 0.0529,-1.84485 1.27,-3.1781 1.27,-1.37976 3.05594,-1.37976 l 0.75406,0.0775 q 0.30427,-1.10071 1.09802,-1.96888 1.27,-1.37976 3.05594,-1.37976 1.79916,0 3.05593,1.37976 0.87313,0.94568 1.15094,2.15491 2.80458,0.63562 5.00063,2.80603 1.12447,-0.96118 2.6326,-0.96118 1.78594,0 3.05594,1.37976 0.92604,1.00769 1.17739,2.34094 l 2.32834,-0.26355 0.76729,0.031 q 0.27781,-1.19373 1.12448,-2.1239 1.25677,-1.37976 3.05593,-1.37976 1.79917,0 3.06917,1.37976 l 0.0794,0.10852 q 0.70114,-1.28675 1.73302,-2.41846 3.22791,-3.53467 7.8052,-3.53467 0.30428,-0.83716 0.92605,-1.50378 1.27,-1.37976 3.06916,-1.37976 l 1.13771,0.15503 q 0.11906,-1.70532 1.25677,-2.94556 1.27,-1.37976 3.05594,-1.37976 1.28323,0 2.27542,0.69763 2.20927,-1.19372 4.86833,-1.19372 4.59052,0 7.83166,3.53466 1.4949,1.62781 2.30188,3.58118 l 0.93927,-0.10852 q 1.78594,0 3.05594,1.37976 1.19062,1.30225 1.25677,3.13159 v 0.20154 l -0.0132,0.40308 q -0.0529,0.83716 -0.37042,1.5813 0.2249,0.5426 0.3175,1.13171 1.66688,0.86816 3.06917,2.40295 0.59531,0.65113 1.08479,1.36426 1.01865,-0.69763 2.30188,-0.69763 1.79916,0 3.05593,1.37976 0.93927,1.02319 1.1774,2.35645 h 0.21167 q 2.57968,0 4.73604,1.13171 0.91281,-0.5271 2.01083,-0.5271 1.11125,0 2.02406,0.5426" />
    <path
       style="fill:#eaf8fd;stroke:none;stroke-width:0.28641984"
       inkscape:connector-curvature="0"
       id="path190-2"
       d="m 270.90686,228.8646 v 29.68811 H 135.45343 V 228.8646 q 4.61698,0.94568 9.07521,2.1239 7.79198,2.04639 15.94115,0.31006 7.55385,-1.6123 15.26645,-2.93005 7.92427,-1.36426 16.04698,-0.44959 8.10948,0.93018 15.49136,2.94556 7.47447,2.04639 15.80885,2.07739 8.33437,0.031 16.12635,-1.5968 7.55386,-1.5968 15.39875,-2.6665 8.20208,-1.10071 16.29833,0.18603" />
    <g
       id="g2396">
      <path
         d="m 270.92009,238.22837 q -4.61698,0.80615 -9.07521,1.81384 -7.79197,1.75183 -15.94114,0.27906 -7.55385,-1.37977 -15.26646,-2.51148 -7.92427,-1.16272 -16.04698,-0.37207 -8.10947,0.77515 -15.49135,2.51148 -7.47448,1.73632 -15.80885,1.76733 -8.33438,0.031 -16.12636,-1.36426 -7.55385,-1.36426 -15.39875,-2.26343 -8.20208,-0.94567 -16.29833,0.13953 v -1.92236 q 8.09625,-1.28675 16.29833,-0.18604 7.8449,1.0697 15.39875,2.66651 7.79198,1.6278 16.12636,1.5968 8.33437,-0.031 15.80885,-2.0774 7.38188,-2.01538 15.49135,-2.94555 8.12271,-0.91467 16.04698,0.44958 7.71261,1.31775 15.26646,2.93006 8.14917,1.73632 15.94114,-0.31006 4.45823,-1.17822 9.07521,-2.1239 v 1.92236"
         id="path192-8"
         inkscape:connector-curvature="0"
         style="fill:#c9efff;stroke:none;stroke-width:0.28641984" />
      <path
         d="m 270.92009,238.22837 v 58.77161 H 135.46666 v -58.77161 q 8.09625,-1.0852 16.29833,-0.13953 7.8449,0.89917 15.39875,2.26343 7.79198,1.39527 16.12636,1.36426 8.33437,-0.031 15.80885,-1.76733 7.38188,-1.73633 15.49135,-2.51148 8.12271,-0.79065 16.04698,0.37207 7.71261,1.13171 15.26646,2.51148 8.14917,1.47277 15.94114,-0.27906 4.45823,-1.00769 9.07521,-1.81384"
         id="path194-6"
         inkscape:connector-curvature="0"
         style="fill:#b7e7fa;stroke:none;stroke-width:0.28641984" />
    </g>
    <g
       inkscape:transform-center-x="69.805586"
       transform="matrix(0.26458333,0,0,0.31005859,-10.583333,-22.980489)"
       id="g2177">
      <path
         style="fill:#cfeffc;stroke:none"
         inkscape:connector-curvature="0"
         id="path2165"
         d="m 40,520 h 512 v 512 H 40 V 520" />
      <path
         style="fill:#def5ff;stroke:none"
         inkscape:connector-curvature="0"
         id="path2167"
         d="m 40,736.2 q 3.45,-1.75 7.65,-1.75 4.15,0 7.6,1.7 8.15,-3.65 17.9,-3.65 h 0.8 q 0.9,-4.3 4.45,-7.6 4.75,-4.45 11.55,-4.45 4.85,0 8.7,2.25 l 4.1,-4.4 q 5.3,-4.95 11.6,-7.75 0.35,-1.9 1.2,-3.65 -1.2,-2.4 -1.4,-5.1 l -0.05,-1.3 v -0.65 q 0.25,-5.9 4.75,-10.1 4.8,-4.45 11.55,-4.45 l 3.55,0.35 q 3.05,-6.3 8.7,-11.55 12.25,-11.4 29.6,-11.4 10.05,0 18.4,3.85 3.75,-2.25 8.6,-2.25 6.75,0 11.55,4.45 4.3,4 4.75,9.5 l 4.3,-0.5 q 6.8,0 11.6,4.45 2.35,2.15 3.5,4.85 17.3,0 29.5,11.4 3.9,3.65 6.55,7.8 l 0.3,-0.35 q 4.8,-4.45 11.6,-4.45 6.8,0 11.55,4.45 3.2,3 4.25,6.85 l 2.9,-0.1 8.8,0.85 q 0.95,-4.3 4.45,-7.55 4.8,-4.45 11.55,-4.45 5.7,0 9.95,3.1 8.3,-7 18.9,-9.05 1.05,-3.9 4.35,-6.95 4.75,-4.45 11.55,-4.45 6.75,0 11.55,4.45 3,2.8 4.15,6.35 l 2.85,-0.25 q 6.75,0 11.55,4.45 4.6,4.3 4.8,10.25 v 0.55 0.35 l -0.05,1.05 -0.05,0.25 H 406 q 3.25,-1.5 7.1,-1.5 6.8,0 11.55,4.45 l 0.5,0.5 6.5,-0.45 q 16.55,0 28.4,10.35 l 1.35,-1.4 q 4.8,-4.45 11.55,-4.45 6.8,0 11.55,4.45 2.7,2.45 3.85,5.5 4.75,-1.9 10.1,-2.55 0.9,-6.2 5.55,-10.8 3.35,-3.35 7.45,-4.75 3.05,-1.1 6.55,-1.1 8.15,0 14,5.85 1.4,1.4 2.45,2.95 6.75,0.7 11.75,5.7 5.6,5.6 5.8,13.45 V 862.1 H 40 V 736.2" />
      <path
         inkscape:connector-curvature="0"
         style="fill:url(#linearGradient2220);stroke:none"
         id="path2169"
         d="M 552,766.2 V 892.1 H 40 V 767.8 q 0.2,-7.85 5.8,-13.45 5,-5 11.75,-5.7 1.05,-1.55 2.45,-2.95 5.85,-5.85 14,-5.85 3.5,0 6.55,1.1 4.1,1.4 7.45,4.75 4.65,4.6 5.55,10.8 5.35,0.65 10.1,2.55 1.15,-3.05 3.85,-5.5 4.75,-4.45 11.55,-4.45 6.75,0 11.55,4.45 l 1.35,1.4 q 11.85,-10.35 28.4,-10.35 l 6.5,0.45 0.5,-0.5 q 4.75,-4.45 11.55,-4.45 3.85,0 7.1,1.5 h 0.05 l -0.05,-0.25 -0.05,-1.05 v -0.35 -0.55 q 0.2,-5.95 4.8,-10.25 4.8,-4.45 11.55,-4.45 l 2.85,0.25 q 1.15,-3.55 4.15,-6.35 4.8,-4.45 11.55,-4.45 6.8,0 11.55,4.45 3.3,3.05 4.35,6.95 10.6,2.05 18.9,9.05 4.25,-3.1 9.95,-3.1 6.75,0 11.55,4.45 3.5,3.25 4.45,7.55 l 8.8,-0.85 2.9,0.1 q 1.05,-3.85 4.25,-6.85 4.75,-4.45 11.55,-4.45 6.8,0 11.6,4.45 l 0.3,0.35 q 2.65,-4.15 6.55,-7.8 12.2,-11.4 29.5,-11.4 1.15,-2.7 3.5,-4.85 4.8,-4.45 11.6,-4.45 l 4.3,0.5 q 0.45,-5.5 4.75,-9.5 4.8,-4.45 11.55,-4.45 4.85,0 8.6,2.25 8.35,-3.85 18.4,-3.85 17.35,0 29.6,11.4 5.65,5.25 8.7,11.55 l 3.55,-0.35 q 6.75,0 11.55,4.45 4.5,4.2 4.75,10.1 v 0.65 l -0.05,1.3 q -0.2,2.7 -1.4,5.1 0.85,1.75 1.2,3.65 6.3,2.8 11.6,7.75 2.25,2.1 4.1,4.4 3.85,-2.25 8.7,-2.25 6.8,0 11.55,4.45 3.55,3.3 4.45,7.6 h 0.8 q 9.75,0 17.9,3.65 3.45,-1.7 7.6,-1.7 4.2,0 7.65,1.75" />
      <path
         style="fill:#eaf8fd;stroke:none"
         inkscape:connector-curvature="0"
         id="path2171"
         d="M 551.95,812.25 V 908 H 40 v -95.75 q 17.45,3.05 34.3,6.85 29.45,6.6 60.25,1 28.55,-5.2 57.7,-9.45 29.95,-4.4 60.65,-1.45 30.65,3 58.55,9.5 28.25,6.6 59.75,6.7 31.5,0.1 60.95,-5.15 28.55,-5.15 58.2,-8.6 31,-3.55 61.6,0.6" />
      <path
         style="fill:#c9efff;stroke:none"
         inkscape:connector-curvature="0"
         id="path2173"
         d="m 552,842.45 q -17.45,2.6 -34.3,5.85 -29.45,5.65 -60.25,0.9 -28.55,-4.45 -57.7,-8.1 -29.95,-3.75 -60.65,-1.2 -30.65,2.5 -58.55,8.1 -28.25,5.6 -59.75,5.7 -31.5,0.1 -60.95,-4.4 -28.55,-4.4 -58.2,-7.3 -31,-3.05 -61.6,0.45 v -6.2 q 30.6,-4.15 61.6,-0.6 29.65,3.45 58.2,8.6 29.45,5.25 60.95,5.15 31.5,-0.1 59.75,-6.7 27.9,-6.5 58.55,-9.5 30.7,-2.95 60.65,1.45 29.15,4.25 57.7,9.45 30.8,5.6 60.25,-1 16.85,-3.8 34.3,-6.85 v 6.2" />
      <path
         style="fill:#b7e7fa;stroke:none"
         inkscape:connector-curvature="0"
         id="path2175"
         d="M 552,842.45 V 1032 H 40.05 V 842.45 q 30.6,-3.5 61.6,-0.45 29.65,2.9 58.2,7.3 29.45,4.5 60.95,4.4 31.5,-0.1 59.75,-5.7 27.9,-5.6 58.55,-8.1 30.7,-2.55 60.65,1.2 29.15,3.65 57.7,8.1 30.8,4.75 60.25,-0.9 16.85,-3.25 34.3,-5.85" />
    </g>
    <g
       transform="matrix(1.7868546,0,0,1.7868546,-345.9583,92.322125)"
       id="g2116">
      <path
         d="m 258.7,129 q -0.65,2.85 -2.4,4.55 -2.2,1.3 -3.75,-0.35 -0.9,-9.05 -10.15,-12.1 1.9,-6.1 7.6,-8.55 10.35,9.1 8.7,16.45 m -45.35,8.85 q -2.65,-0.8 -2.1,-3.35 5.85,-6.55 2.05,-15.35 5.8,-2.65 11.45,0 0.1,13.8 -6.55,17.45 -2.5,1.4 -4.85,1.25"
         id="path222"
         inkscape:connector-curvature="0"
         style="fill:#6fc4a9;stroke:none" />
      <path
         d="m 247.8,58.95 q 6.3,6.3 6.3,15.2 v 40.4 q 0,5.45 -6.3,9.3 -6.3,3.8 -15.2,3.8 -8.9,0 -15.2,-3.8 -6.3,-3.85 -6.3,-9.3 v -40.4 q 0,-8.9 6.3,-15.2 6.3,-6.3 15.2,-6.3 8.9,0 15.2,6.3"
         id="path224"
         inkscape:connector-curvature="0"
         style="fill:#6fc4a9;stroke:none" />
      <path
         d="m 251.45,85.6 q 0,2 -1.5,3.4 -1.45,1.5 -3.45,1.5 -2.1,0 -3.6,-1.5 -1.4,-1.4 -1.4,-3.4 0,-2 1.4,-3.5 1.5,-1.45 3.6,-1.45 2,0 3.45,1.45 1.5,1.5 1.5,3.5 M 228.8,80.65 q 2,0 3.45,1.45 1.5,1.5 1.5,3.5 0,2 -1.5,3.4 -1.45,1.5 -3.45,1.5 -2.1,0 -3.6,-1.5 -1.4,-1.4 -1.4,-3.4 0,-2 1.4,-3.5 1.5,-1.45 3.6,-1.45"
         id="path226"
         inkscape:connector-curvature="0"
         style="fill:#347e67;stroke:none" />
      <path
         d="m 240.1,96.15 q 0,1.05 -0.75,1.75 -0.7,0.75 -1.75,0.75 -1.05,0 -1.8,-0.75 -0.7,-0.7 -0.7,-1.75 0,-1.05 0.7,-1.8 0.75,-0.7 1.8,-0.7 1.05,0 1.75,0.7 0.75,0.75 0.75,1.8"
         id="path228"
         inkscape:connector-curvature="0"
         style="fill:#347e67;stroke:none" />
      <path
         d="m 265.85,95.9 q 0.9,0.55 1.2,1.5 0.25,0.95 -0.25,1.9 -6,11 -18.6,9.1 l -0.3,-0.05 4.6,-8 q 5.95,3.7 9.95,-3.45 0.55,-0.95 1.5,-1.25 1,-0.25 1.9,0.25 M 213,97.25 v 9.2 q -7,-0.2 -6.85,8 0,1.05 -0.7,1.8 -0.7,0.75 -1.75,0.75 -1.05,0 -1.8,-0.7 -0.7,-0.7 -0.75,-1.75 -0.3,-12.55 11.55,-17.2 l 0.3,-0.1"
         id="path230"
         inkscape:connector-curvature="0"
         style="fill:#6fc4a9;stroke:none" />
      <path
         d="m 260.2,77.1 q 0,-11.4 -8.05,-19.45 -8.15,-8.1 -19.55,-8.1 -11.4,0 -19.45,8.1 Q 205,65.7 205,77.1 q 0,11.45 8.15,19.55 8.05,8.05 19.45,8.05 11.4,0 19.55,-8.05 8.05,-8.1 8.05,-19.55 m -4.5,-23 q 9.5,9.5 9.5,23 0,13.55 -9.5,23.1 -9.6,9.5 -23.1,9.5 -13.5,0 -23,-9.5 -9.6,-9.55 -9.6,-23.1 0,-13.5 9.6,-23 9.5,-9.55 23,-9.55 13.5,0 23.1,9.55"
         id="path232"
         inkscape:connector-curvature="0"
         style="fill:#ffffff;stroke:none" />
      <path
         d="m 260.2,77.1 q 0,11.45 -8.05,19.55 -8.15,8.05 -19.55,8.05 -11.4,0 -19.45,-8.05 Q 205,88.55 205,77.1 q 0,-11.4 8.15,-19.45 8.05,-8.1 19.45,-8.1 11.4,0 19.55,8.1 8.05,8.05 8.05,19.45 m -6.75,-10.35 q 0,-3.9 -2.75,-6.65 -2.75,-2.8 -6.65,-2.8 -3.9,0 -6.65,2.8 -2.8,2.75 -2.8,6.65 0,3.9 2.8,6.65 2.75,2.75 6.65,2.75 3.9,0 6.65,-2.75 2.75,-2.75 2.75,-6.65"
         id="path234"
         inkscape:connector-curvature="0"
         style="fill:#ffffff;fill-opacity:0.2;stroke:none" />
      <path
         d="m 253.45,66.75 q 0,3.9 -2.75,6.65 -2.75,2.75 -6.65,2.75 -3.9,0 -6.65,-2.75 -2.8,-2.75 -2.8,-6.65 0,-3.9 2.8,-6.65 2.75,-2.8 6.65,-2.8 3.9,0 6.65,2.8 2.75,2.75 2.75,6.65"
         id="path236"
         inkscape:connector-curvature="0"
         style="fill:#ffffff;fill-opacity:0.30196078;stroke:none" />
      <path
         d="m 231.35,119.65 q 0,-1.65 1.15,-2.8 1.15,-1.15 2.8,-1.15 1.65,0 2.8,1.15 1.15,1.15 1.15,2.8 0,1.65 -1.15,2.8 -1.15,1.15 -2.8,1.15 -1.65,0 -2.8,-1.15 -1.15,-1.15 -1.15,-2.8 m 10.75,-1.1 q 0,-0.85 0.6,-1.45 0.6,-0.6 1.45,-0.6 0.85,0 1.45,0.6 0.6,0.6 0.6,1.45 0,0.85 -0.6,1.45 -0.6,0.6 -1.45,0.6 -0.85,0 -1.45,-0.6 -0.6,-0.6 -0.6,-1.45 m 6.95,-8.75 q 0.85,0.85 0.85,2.05 0,1.2 -0.85,2.05 -0.85,0.85 -2.05,0.85 -1.2,0 -2.05,-0.85 -0.85,-0.85 -0.85,-2.05 0,-1.2 0.85,-2.05 0.85,-0.85 2.05,-0.85 1.2,0 2.05,0.85"
         id="path238"
         inkscape:connector-curvature="0"
         style="fill:#8bcfba;fill-opacity:0.50196078;stroke:none" />
    </g>
  </g>
</svg>
